# xmcd
#
# Track frame offsets: 
#        150
#        13495
#        30521
#        47178
#        62133
#        78010
#        93331
#        107309
#        122268
#        139673
#        158520
#        176166
#        191400
#        209716
#        230828
#        244995
#        262786
#        280296
#        298536
#
# Disc length: 4183 seconds
#
# Revision: 2
# Processed by: cddbd v1.5.2PL0 Copyright (c) Steve Scherf et al.
# Submitted via: ExactAudioCopy v0.95b4
#
DISCID=07105513
DTITLE=????? - ????? BEST ALBUM
DYEAR=1900
DGENRE=Pop
TTITLE0=???????
TTITLE1=?????
TTITLE2=??????
TTITLE3=?????
TTITLE4=??????
TTITLE5=????
TTITLE6=??????
TTITLE7=?????
TTITLE8=???
TTITLE9=???
TTITLE10=????????
TTITLE11=???
TTITLE12=????
TTITLE13=????
TTITLE14=??????
TTITLE15=????
TTITLE16=??????
TTITLE17=??????
TTITLE18=??????? I Love You
EXTD=
EXTT0=
EXTT1=
EXTT2=
EXTT3=
EXTT4=
EXTT5=
EXTT6=
EXTT7=
EXTT8=
EXTT9=
EXTT10=
EXTT11=
EXTT12=
EXTT13=
EXTT14=
EXTT15=
EXTT16=
EXTT17=
EXTT18=
PLAYORDER=
